<?xml version="1.0" encoding="utf-8"?>
<svg version="1.1" id="Слой_1" xmlns="http://www.w3.org/2000/svg" xmlns:xlink="http://www.w3.org/1999/xlink" x="0px" y="0px"
	 viewBox="0 0 283.5 283.5" style="enable-background:new 0 0 283.5 283.5;" xml:space="preserve">
<style type="text/css">
	.st0{fill:#0871B8;}
	.st1{fill:#92B0DD;}
</style>
<path class="st0" d="M73.4,178c-0.2-1.5-0.7-2.8-1.6-3.6c-0.9-0.9-2.1-1.3-3.5-1.3c-0.9,0-1.7,0.2-2.5,0.6c-0.8,0.4-1.4,0.9-2,1.6
	c-0.6,0.7-1,1.5-1.4,2.5c-0.3,1-0.5,2.1-0.5,3.3c0,1.5,0.3,2.9,0.9,4.1c0.6,1.2,1.4,2.1,2.4,2.8c1,0.7,2.1,1,3.3,1
	c1.1,0,2.1-0.2,3.2-0.7c1-0.5,1.9-1.2,2.5-2.1l0.6,0.5c-0.7,1-1.5,1.7-2.3,2.2c-0.8,0.5-1.6,0.9-2.5,1.1c-0.8,0.2-1.6,0.3-2.2,0.3
	c-1.2,0-2.4-0.2-3.4-0.7c-1-0.4-1.9-1.1-2.7-1.9c-0.7-0.8-1.3-1.7-1.7-2.8c-0.4-1.1-0.6-2.2-0.6-3.4c0-1.2,0.2-2.3,0.5-3.4
	c0.4-1.1,0.9-2.1,1.6-3c0.7-0.9,1.6-1.6,2.7-2.1c1.1-0.5,2.3-0.8,3.8-0.8c0.9,0,1.8,0.1,2.6,0.4c0.8,0.2,1.6,0.6,2.4,1.1l-0.1-1.3
	h1.3v5.7H73.4z"/>
<path class="st0" d="M77,189.8V189c0.6,0,1.1-0.2,1.3-0.4c0.2-0.3,0.4-0.6,0.4-1.1c0-0.5,0-1,0-1.5v-10.7c0-0.3,0-0.6,0-1
	c0-0.3,0-0.6,0-0.8c-0.3,0-0.6,0-0.9,0c-0.3,0-0.6,0-0.9,0v-1.1h5.6v0.8c-0.6,0-1,0.2-1.3,0.4c-0.2,0.3-0.4,0.6-0.4,1.1
	c0,0.4,0,1,0,1.6v10.6c0,0.4,0,0.8,0,1.1c0,0.3,0,0.6-0.1,0.8l4.6-0.1c1,0,1.8-0.3,2.4-1c0.5-0.6,0.8-1.7,0.8-3.1h0.8l-0.1,5.1H77z"
	/>
<path class="st0" d="M99.9,183.4c0-0.7-0.1-1.2-0.3-1.6c-0.2-0.3-0.5-0.5-0.9-0.6c-0.4-0.1-1-0.1-1.7,0l-1.8,0.1v5.7
	c0,0.4,0,0.8,0,1.1c0,0.3,0,0.6-0.1,0.8l4.7-0.1c0.7,0,1.4-0.1,1.9-0.4c0.5-0.2,0.9-0.6,1.2-1.2c0.3-0.6,0.4-1.3,0.4-2.3h0.8
	l-0.1,4.8H91.3V189c0.6,0,1.1-0.2,1.3-0.4c0.2-0.3,0.4-0.6,0.4-1.1c0-0.5,0-1,0-1.5v-10.7c0-0.3,0-0.6,0-1c0-0.3,0-0.6,0-0.8
	c-0.3,0-0.6,0-0.9,0c-0.3,0-0.6,0-0.9,0v-1.1h11.9l0.1,4.3h-0.8c0-1-0.1-1.7-0.4-2.2c-0.3-0.5-0.7-0.8-1.2-1
	c-0.5-0.2-1.1-0.3-1.7-0.2l-2.1,0c-0.6,0-1,0.1-1.3,0.3c-0.3,0.2-0.4,0.5-0.5,1c-0.1,0.4-0.1,1-0.1,1.6v4l4.6,0l-0.2-2.1h1.1v5.2
	H99.9z"/>
<path class="st0" d="M105.1,189.8V189c0.5,0,0.9-0.1,1.1-0.4c0.3-0.3,0.5-0.6,0.7-1.1c0.2-0.5,0.4-1,0.6-1.6l5.1-13.9h0.6l5.5,14.1
	c0.1,0.3,0.3,0.8,0.4,1.3c0.2,0.5,0.2,1,0.2,1.4c0.3,0,0.6,0,0.8,0c0.3,0,0.6,0,0.8,0v1.1h-5.7V189c0.6,0,1-0.2,1.2-0.4
	c0.2-0.3,0.3-0.6,0.2-0.9c0-0.4-0.1-0.7-0.2-1l-0.9-2.3l-6.4,0.1l-0.9,2.6c-0.1,0.4-0.2,0.7-0.3,0.9c-0.1,0.2-0.2,0.5-0.3,0.8
	c0.3,0,0.7,0,1,0c0.3,0,0.6,0,1,0v1.1H105.1z M109.7,183.4h5.7l-1.8-4.7c-0.2-0.5-0.4-1-0.6-1.5c-0.2-0.5-0.4-1-0.6-1.5h0
	c-0.2,0.5-0.3,0.9-0.5,1.4c-0.2,0.5-0.3,0.9-0.5,1.4L109.7,183.4z"/>
<path class="st0" d="M135.6,190.2l-9.9-13.2c-0.1-0.2-0.3-0.4-0.4-0.6c-0.1-0.2-0.3-0.4-0.4-0.6h0l0.1,10.6c0,0.4,0,0.8,0,1.2
	c0,0.4,0,0.8,0,1.2c0.3,0,0.6,0,0.9,0c0.3,0,0.6,0,0.9,0v1.1h-4.5V189c0.5,0,0.9-0.1,1.1-0.3c0.2-0.2,0.4-0.5,0.4-0.8
	c0.1-0.3,0.1-0.6,0.1-0.8l0-11.9c0-0.3,0-0.6,0-0.8c0-0.3,0-0.6,0-0.8c-0.3,0-0.5,0-0.8,0c-0.3,0-0.6,0-0.8,0v-1.1h2.9l9.3,12.4
	c0.2,0.3,0.4,0.6,0.6,0.8c0.2,0.3,0.4,0.6,0.6,0.8h0l0-11.3c0-0.3,0-0.6,0-1c0-0.3,0-0.6,0-0.8c-0.3,0-0.6,0-0.9,0
	c-0.3,0-0.6,0-0.9,0v-1.1h4.5v0.8c-0.6,0-1,0.2-1.3,0.4c-0.2,0.3-0.4,0.6-0.4,1.1c0,0.4,0,1,0,1.6l0,13.8H135.6z"/>
<path class="st0" d="M153.1,190l-4.4-13.1c-0.3-0.9-0.5-1.6-0.7-2.1c-0.2-0.5-0.3-0.9-0.4-1.3c-0.2,0-0.5,0-0.7,0s-0.5,0-0.7,0v-1.1
	h6v0.8c-1,0-1.5,0.3-1.7,0.6c-0.2,0.4-0.2,1.1,0.1,2.1c0.3,1.1,0.6,2.1,0.9,2.9c0.3,0.9,0.7,1.8,1,2.8c0.2,0.7,0.5,1.4,0.7,2.1
	c0.2,0.6,0.5,1.3,0.7,2.1h0c0.1-0.3,0.2-0.6,0.3-0.9c0.1-0.3,0.2-0.6,0.3-0.9c0.1-0.3,0.2-0.6,0.3-0.8c0.1-0.3,0.1-0.5,0.2-0.6
	c0.5-1.5,0.9-2.9,1.4-4.3c0.5-1.4,0.9-2.6,1.2-3.6c0.3-1,0.6-1.8,0.7-2.3h0.8c0.1,0.5,0.4,1.2,0.6,2.1c0.3,0.8,0.6,1.7,0.9,2.6
	c0.3,0.9,0.6,1.8,0.9,2.6c0.3,0.8,0.5,1.5,0.7,2c0.2,0.7,0.5,1.5,0.7,2.2c0.3,0.7,0.5,1.5,0.7,2.2h0.1c0.1-0.5,0.3-1,0.5-1.5
	c0.2-0.5,0.3-1.1,0.5-1.7c0.4-1.2,0.8-2.2,1-3.1c0.3-0.8,0.5-1.5,0.7-2.1c0.2-0.5,0.3-1,0.4-1.4c0.1-0.4,0.3-0.8,0.4-1.2
	c0.1-0.3,0.2-0.6,0.3-0.9c0.1-0.3,0.3-0.6,0.4-0.9c-0.3,0-0.7,0-1,0c-0.3,0-0.7,0-1,0v-1.1h5v0.8c-0.6,0.1-1,0.2-1.3,0.4
	c-0.3,0.2-0.6,0.5-0.9,1c-0.2,0.5-0.5,1.3-0.9,2.3c-0.8,2.2-1.5,4.4-2.2,6.6c-0.7,2.2-1.5,4.3-2.2,6.5h-0.7l-3.8-10.7
	c-0.1-0.4-0.3-0.8-0.4-1.3c-0.1-0.4-0.3-0.8-0.4-1.2c-0.1,0.4-0.3,0.8-0.4,1.2c-0.1,0.4-0.3,0.8-0.4,1.2l-3.5,10.7H153.1z"/>
<path class="st0" d="M177.6,173.3c-0.6,0-1,0.2-1.3,0.4c-0.2,0.3-0.4,0.6-0.4,1.1c0,0.4,0,1,0,1.6v10.5c0,0.4,0,0.8,0,1.1
	c0,0.3,0,0.6-0.1,0.8c0.3,0,0.6,0,0.9,0c0.3,0,0.6,0,0.9,0v1.1H172V189c0.6,0,1.1-0.2,1.3-0.4c0.2-0.3,0.4-0.6,0.4-1.1
	c0-0.5,0-1,0-1.5v-10.7c0-0.3,0-0.6,0-1c0-0.3,0-0.6,0-0.8c-0.3,0-0.6,0-0.9,0c-0.3,0-0.6,0-0.9,0v-1.1h5.6V173.3z"/>
<path class="st0" d="M193.8,190.2l-9.9-13.2c-0.1-0.2-0.3-0.4-0.4-0.6c-0.1-0.2-0.3-0.4-0.4-0.6h0l0.1,10.6c0,0.4,0,0.8,0,1.2
	c0,0.4,0,0.8,0,1.2c0.3,0,0.6,0,0.9,0c0.3,0,0.6,0,0.9,0v1.1h-4.5V189c0.5,0,0.9-0.1,1.1-0.3c0.2-0.2,0.4-0.5,0.4-0.8
	c0.1-0.3,0.1-0.6,0.1-0.8l0-11.9c0-0.3,0-0.6,0-0.8c0-0.3,0-0.6,0-0.8c-0.3,0-0.5,0-0.8,0c-0.3,0-0.6,0-0.8,0v-1.1h2.9l9.3,12.4
	c0.2,0.3,0.4,0.6,0.6,0.8c0.2,0.3,0.4,0.6,0.6,0.8h0l0-11.3c0-0.3,0-0.6,0-1c0-0.3,0-0.6,0-0.8c-0.3,0-0.6,0-0.9,0
	c-0.3,0-0.6,0-0.9,0v-1.1h4.5v0.8c-0.6,0-1,0.2-1.3,0.4c-0.2,0.3-0.4,0.6-0.4,1.1c0,0.4,0,1,0,1.6l0,13.8H193.8z"/>
<path class="st0" d="M207.3,190.2c-1.6,0-3.1-0.3-4.4-1c-1.3-0.7-2.3-1.7-3-3c-0.7-1.3-1.1-2.8-1.1-4.6c0-1.2,0.2-2.3,0.5-3.4
	c0.4-1.1,0.9-2.1,1.6-3c0.7-0.9,1.6-1.6,2.7-2.2c1.1-0.5,2.3-0.8,3.8-0.8c0.6,0,1.2,0.1,1.8,0.2c0.6,0.1,1.2,0.3,1.8,0.5
	c0.6,0.2,1.1,0.4,1.5,0.7l-0.1-1.2h1.4v5.7H213c-0.1-1-0.3-1.9-0.8-2.6c-0.5-0.7-1.1-1.3-1.9-1.6c-0.8-0.4-1.6-0.6-2.6-0.6
	c-0.9,0-1.7,0.2-2.5,0.6c-0.8,0.4-1.4,0.9-2,1.6c-0.6,0.7-1,1.5-1.4,2.5c-0.3,1-0.5,2-0.5,3.2c0,1.5,0.3,2.9,0.8,4.2
	c0.6,1.2,1.3,2.2,2.3,2.9c1,0.7,2.1,1,3.4,1c0.4,0,0.9,0,1.4-0.1c0.5-0.1,1-0.2,1.5-0.4c0.5-0.2,0.9-0.4,1.4-0.7v-3
	c0-0.4,0-0.8,0-1.2c0-0.4,0-0.8,0-1.2c-0.3,0-0.6,0-0.9,0c-0.3,0-0.6,0-0.9,0v-1.1h5.6v0.8c-0.5,0-0.8,0.1-1.1,0.4
	c-0.2,0.2-0.4,0.5-0.5,0.9c-0.1,0.3-0.2,0.7-0.2,1c0,0.3,0,0.6,0,0.7v3.8h-0.7c-0.3,0-0.6,0-1.1,0.1c-0.5,0.1-1,0.3-1.6,0.5
	c-0.5,0.2-1.1,0.4-1.8,0.5C208.5,190.1,207.9,190.2,207.3,190.2z"/>
<path class="st0" d="M227.6,177.7c0-0.8-0.2-1.5-0.6-2.2c-0.3-0.7-0.8-1.3-1.4-1.7c-0.6-0.4-1.4-0.7-2.4-0.7c-1,0-1.8,0.3-2.3,0.9
	c-0.5,0.6-0.8,1.3-0.8,2c0,0.7,0.2,1.3,0.6,1.7c0.4,0.5,0.9,0.9,1.5,1.2c0.6,0.4,1.3,0.7,2,1c0.6,0.3,1.3,0.6,1.9,0.9
	c0.6,0.3,1.2,0.7,1.7,1.1c0.5,0.4,0.9,0.9,1.2,1.5c0.3,0.6,0.5,1.2,0.5,2c0,0.9-0.2,1.7-0.7,2.4c-0.5,0.7-1.1,1.3-2,1.7
	c-0.9,0.4-1.9,0.6-3.1,0.6c-0.7,0-1.5-0.1-2.3-0.3c-0.8-0.2-1.5-0.5-2.1-0.9l0.1,1.1h-1.3l-0.1-5.3h1c0.1,1.4,0.6,2.5,1.5,3.3
	c0.9,0.7,2,1.1,3.3,1.1c0.6,0,1.2-0.1,1.8-0.4c0.5-0.2,1-0.6,1.3-1c0.3-0.5,0.5-1,0.5-1.7c0-0.7-0.2-1.4-0.6-1.9
	c-0.4-0.5-0.9-0.9-1.5-1.3c-0.6-0.4-1.3-0.7-2-1c-0.6-0.3-1.2-0.6-1.9-0.9c-0.6-0.3-1.2-0.7-1.7-1.1c-0.5-0.4-0.9-0.9-1.2-1.4
	c-0.3-0.6-0.5-1.2-0.5-2c0-0.4,0.1-0.9,0.2-1.4c0.1-0.5,0.4-1,0.8-1.4c0.4-0.5,0.9-0.8,1.5-1.1c0.7-0.3,1.5-0.4,2.5-0.4
	c0.6,0,1.3,0.1,2.1,0.3c0.8,0.2,1.5,0.5,2.2,1l-0.1-1.1h1.3v5.4H227.6z"/>
<path class="st1" d="M150.8,127.1l6.7,3.6l0.1-0.9c0.4-0.7,0.7-0.8,0.7-0.8s2.6-0.3,3.4,0c0.7,0.3,1,1,1,1v3.1l1.2,0.8
	c0,0,0-0.4,0-0.8c0-0.4,0.6-0.7,0.6-0.7s2,0,3,0s1.1,1,1.1,1l-0.1,2.9c0,0,6.1,3.1,7,3.5c0.2,0.1,0.4,0.2,0.6,0.4
	c0.3-1.7,0.4-3.5,0.4-5.3c0-16.9-13-30.7-29.5-32C152.7,108.5,150.8,127.1,150.8,127.1z"/>
<path class="st0" d="M113.6,140c0.9-0.4,7.1-3.5,7.1-3.5l-0.1-2.9c0,0,0.2-1,1.1-1c0.9,0,3,0,3,0s0.6,0.3,0.6,0.7c0,0.4,0,0.8,0,0.8
	l1.2-0.8V130c0,0,0.3-0.7,1-1c0.7-0.3,3.4,0,3.4,0s0.3,0.1,0.7,0.8l0.1,0.9l6.8-3.6c0,0-1.9-18.7,3.8-24.1c-16.7,1.1-30,15-30,32
	c0,1.9,0.2,3.7,0.5,5.5C113,140.3,113.3,140.1,113.6,140z"/>
<path class="st0" d="M140.1,158.8c0,0-1.6-11.2-1.4-17l-6.4,0.1l-17.8,4.7c3.2,8.3,9.8,14.9,18,18.2L140.1,158.8z"/>
<path class="st1" d="M157,141.9l-6.3-0.1c0.2,5.8-1.4,17-1.4,17l7.4,5.9c8.2-3.3,14.6-10,17.8-18.2L157,141.9z"/>
</svg>